{"asset": {"version": "2.0", "generator": "SPOKELINE (Numberz.ai) - surrogate data"}, "scene": 0, "scenes": [{"nodes": [0, 1, 2, 3, 4, 5, 6, 7, 8, 9, 10, 11, 12]}], "nodes": [{"name": "SPK-1000 frame", "mesh": 0, "translation": [0.0, 0.62, -0.25]}, {"name": "SPK-1100 fork", "mesh": 1, "translation": [0.0, 1.0, 0.3]}, {"name": "SPK-1110 handlebar", "mesh": 2, "translation": [0.0, 1.01, 0.32]}, {"name": "SPK-1200 front wheel", "mesh": 3, "translation": [0.0, 0.35, 0.4]}, {"name": "SPK-1210 axle skewer", "mesh": 4, "translation": [0.0, 0.35, 0.4]}, {"name": "SPK-1211 skewer lever", "mesh": 5, "translation": [-0.085, 0.35, 0.4]}, {"name": "SPK-1212 quick release nut", "mesh": 6, "translation": [0.085, 0.35, 0.4]}, {"name": "SPK-1300 brake caliper arm left", "mesh": 7, "translation": [-0.045, 0.76, 0.4]}, {"name": "SPK-1301 brake caliper arm right", "mesh": 8, "translation": [0.045, 0.76, 0.4]}, {"name": "SPK-1310 brake pad left", "mesh": 9, "translation": [-0.03, 0.62, 0.4]}, {"name": "SPK-1311 brake pad right", "mesh": 10, "translation": [0.03, 0.62, 0.4]}, {"name": "SPK-1400 brake lever", "mesh": 11, "translation": [-0.23, 1.01, 0.32]}, {"name": "SPK-1500 fender bolt", "mesh": 12, "translation": [0.0, 0.86, 0.38]}], "meshes": [{"name": "frame", "primitives": [{"attributes": {"POSITION": 0}, "indices": 1}]}, {"name": "fork", "primitives": [{"attributes": {"POSITION": 2}, "indices": 3}]}, {"name": "handlebar", "primitives": [{"attributes": {"POSITION": 4}, "indices": 5}]}, {"name": "front wheel", "primitives": [{"attributes": {"POSITION": 6}, "indices": 7}]}, {"name": "axle skewer", "primitives": [{"attributes": {"POSITION": 8}, "indices": 9}]}, {"name": "skewer lever", "primitives": [{"attributes": {"POSITION": 10}, "indices": 11}]}, {"name": "quick release nut", "primitives": [{"attributes": {"POSITION": 12}, "indices": 13}]}, {"name": "brake caliper arm left", "primitives": [{"attributes": {"POSITION": 14}, "indices": 15}]}, {"name": "brake caliper arm right", "primitives": [{"attributes": {"POSITION": 16}, "indices": 17}]}, {"name": "brake pad left", "primitives": [{"attributes": {"POSITION": 18}, "indices": 19}]}, {"name": "brake pad right", "primitives": [{"attributes": {"POSITION": 20}, "indices": 21}]}, {"name": "brake lever", "primitives": [{"attributes": {"POSITION": 22}, "indices": 23}]}, {"name": "fender bolt", "primitives": [{"attributes": {"POSITION": 24}, "indices": 25}]}], "accessors": [{"bufferView": 0, "componentType": 5126, "count": 8, "type": "VEC3", "min": [-0.03, -0.26, -0.42], "max": [0.03, 0.26, 0.42]}, {"bufferView": 1, "componentType": 5123, "count": 36, "type": "SCALAR"}, {"bufferView": 2, "componentType": 5126, "count": 8, "type": "VEC3", "min": [-0.028, -0.6, -0.005], "max": [0.028, 0.0, 0.115]}, {"bufferView": 3, "componentType": 5123, "count": 36, "type": "SCALAR"}, {"bufferView": 4, "componentType": 5126, "count": 8, "type": "VEC3", "min": [-0.3, -0.014, -0.014], "max": [0.3, 0.014, 0.014]}, {"bufferView": 5, "componentType": 5123, "count": 36, "type": "SCALAR"}, {"bufferView": 6, "componentType": 5126, "count": 8, "type": "VEC3", "min": [-0.022, -0.35, -0.35], "max": [0.022, 0.35, 0.35]}, {"bufferView": 7, "componentType": 5123, "count": 36, "type": "SCALAR"}, {"bufferView": 8, "componentType": 5126, "count": 8, "type": "VEC3", "min": [-0.085, -0.007, -0.007], "max": [0.085, 0.007, 0.007]}, {"bufferView": 9, "componentType": 5123, "count": 36, "type": "SCALAR"}, {"bufferView": 10, "componentType": 5126, "count": 8, "type": "VEC3", "min": [-0.022, -0.035, -0.007], "max": [0.002, 0.035, 0.007]}, {"bufferView": 11, "componentType": 5123, "count": 36, "type": "SCALAR"}, {"bufferView": 12, "componentType": 5126, "count": 8, "type": "VEC3", "min": [-0.01, -0.016, -0.016], "max": [0.01, 0.016, 0.016]}, {"bufferView": 13, "componentType": 5123, "count": 36, "type": "SCALAR"}, {"bufferView": 14, "componentType": 5126, "count": 8, "type": "VEC3", "min": [-0.01, -0.16, -0.012], "max": [0.01, 0.02, 0.012]}, {"bufferView": 15, "componentType": 5123, "count": 36, "type": "SCALAR"}, {"bufferView": 16, "componentType": 5126, "count": 8, "type": "VEC3", "min": [-0.01, -0.16, -0.012], "max": [0.01, 0.02, 0.012]}, {"bufferView": 17, "componentType": 5123, "count": 36, "type": "SCALAR"}, {"bufferView": 18, "componentType": 5126, "count": 8, "type": "VEC3", "min": [-0.006, -0.018, -0.025], "max": [0.006, 0.018, 0.025]}, {"bufferView": 19, "componentType": 5123, "count": 36, "type": "SCALAR"}, {"bufferView": 20, "componentType": 5126, "count": 8, "type": "VEC3", "min": [-0.006, -0.018, -0.025], "max": [0.006, 0.018, 0.025]}, {"bufferView": 21, "componentType": 5123, "count": 36, "type": "SCALAR"}, {"bufferView": 22, "componentType": 5126, "count": 8, "type": "VEC3", "min": [-0.01, -0.022, -0.045], "max": [0.01, 0.002, 0.095]}, {"bufferView": 23, "componentType": 5123, "count": 36, "type": "SCALAR"}, {"bufferView": 24, "componentType": 5126, "count": 8, "type": "VEC3", "min": [-0.008, -0.008, -0.014], "max": [0.008, 0.008, 0.014]}, {"bufferView": 25, "componentType": 5123, "count": 36, "type": "SCALAR"}, {"bufferView": 26, "componentType": 5126, "count": 2, "type": "SCALAR", "min": [0.0], "max": [1.5]}, {"bufferView": 27, "componentType": 5126, "count": 2, "type": "VEC4"}, {"bufferView": 28, "componentType": 5126, "count": 2, "type": "SCALAR", "min": [0.0], "max": [1.5]}, {"bufferView": 29, "componentType": 5126, "count": 2, "type": "VEC4"}, {"bufferView": 30, "componentType": 5126, "count": 2, "type": "SCALAR", "min": [0.0], "max": [1.5]}, {"bufferView": 31, "componentType": 5126, "count": 2, "type": "VEC4"}, {"bufferView": 32, "componentType": 5126, "count": 2, "type": "SCALAR", "min": [0.0], "max": [1.5]}, {"bufferView": 33, "componentType": 5126, "count": 2, "type": "VEC3"}, {"bufferView": 34, "componentType": 5126, "count": 2, "type": "SCALAR", "min": [0.0], "max": [1.5]}, {"bufferView": 35, "componentType": 5126, "count": 2, "type": "VEC3"}, {"bufferView": 36, "componentType": 5126, "count": 2, "type": "SCALAR", "min": [0.0], "max": [1.5]}, {"bufferView": 37, "componentType": 5126, "count": 2, "type": "VEC4"}], "bufferViews": [{"buffer": 0, "byteOffset": 0, "byteLength": 96}, {"buffer": 0, "byteOffset": 96, "byteLength": 72}, {"buffer": 0, "byteOffset": 168, "byteLength": 96}, {"buffer": 0, "byteOffset": 264, "byteLength": 72}, {"buffer": 0, "byteOffset": 336, "byteLength": 96}, {"buffer": 0, "byteOffset": 432, "byteLength": 72}, {"buffer": 0, "byteOffset": 504, "byteLength": 96}, {"buffer": 0, "byteOffset": 600, "byteLength": 72}, {"buffer": 0, "byteOffset": 672, "byteLength": 96}, {"buffer": 0, "byteOffset": 768, "byteLength": 72}, {"buffer": 0, "byteOffset": 840, "byteLength": 96}, {"buffer": 0, "byteOffset": 936, "byteLength": 72}, {"buffer": 0, "byteOffset": 1008, "byteLength": 96}, {"buffer": 0, "byteOffset": 1104, "byteLength": 72}, {"buffer": 0, "byteOffset": 1176, "byteLength": 96}, {"buffer": 0, "byteOffset": 1272, "byteLength": 72}, {"buffer": 0, "byteOffset": 1344, "byteLength": 96}, {"buffer": 0, "byteOffset": 1440, "byteLength": 72}, {"buffer": 0, "byteOffset": 1512, "byteLength": 96}, {"buffer": 0, "byteOffset": 1608, "byteLength": 72}, {"buffer": 0, "byteOffset": 1680, "byteLength": 96}, {"buffer": 0, "byteOffset": 1776, "byteLength": 72}, {"buffer": 0, "byteOffset": 1848, "byteLength": 96}, {"buffer": 0, "byteOffset": 1944, "byteLength": 72}, {"buffer": 0, "byteOffset": 2016, "byteLength": 96}, {"buffer": 0, "byteOffset": 2112, "byteLength": 72}, {"buffer": 0, "byteOffset": 2184, "byteLength": 8}, {"buffer": 0, "byteOffset": 2192, "byteLength": 32}, {"buffer": 0, "byteOffset": 2224, "byteLength": 8}, {"buffer": 0, "byteOffset": 2232, "byteLength": 32}, {"buffer": 0, "byteOffset": 2264, "byteLength": 8}, {"buffer": 0, "byteOffset": 2272, "byteLength": 32}, {"buffer": 0, "byteOffset": 2304, "byteLength": 8}, {"buffer": 0, "byteOffset": 2312, "byteLength": 24}, {"buffer": 0, "byteOffset": 2336, "byteLength": 8}, {"buffer": 0, "byteOffset": 2344, "byteLength": 24}, {"buffer": 0, "byteOffset": 2368, "byteLength": 8}, {"buffer": 0, "byteOffset": 2376, "byteLength": 32}], "animations": [{"name": "stp-010 Squeeze the brake lever and release the caliper ", "samplers": [{"input": 26, "output": 27, "interpolation": "LINEAR"}], "channels": [{"sampler": 0, "target": {"node": 11, "path": "rotation"}}]}, {"name": "stp-020 Open the skewer lever fully.", "samplers": [{"input": 28, "output": 29, "interpolation": "LINEAR"}], "channels": [{"sampler": 0, "target": {"node": 5, "path": "rotation"}}]}, {"name": "stp-030 Turn the quick release nut counter-clockwise fiv", "samplers": [{"input": 30, "output": 31, "interpolation": "LINEAR"}], "channels": [{"sampler": 0, "target": {"node": 6, "path": "rotation"}}]}, {"name": "stp-040 Withdraw the axle skewer from the hub.", "samplers": [{"input": 32, "output": 33, "interpolation": "LINEAR"}], "channels": [{"sampler": 0, "target": {"node": 4, "path": "translation"}}]}, {"name": "stp-050 Lift the front wheel clear of the fork dropouts.", "samplers": [{"input": 34, "output": 35, "interpolation": "LINEAR"}], "channels": [{"sampler": 0, "target": {"node": 3, "path": "translation"}}]}, {"name": "stp-110 Install the fender bolt and torque to 5 N.m.", "samplers": [{"input": 36, "output": 37, "interpolation": "LINEAR"}], "channels": [{"sampler": 0, "target": {"node": 12, "path": "rotation"}}]}], "buffers": [{"byteLength": 2408, "uri": "data:application/octet-stream;base64,"}]}